<?xml version="1.0" encoding="UTF-8"?>
<svg xmlns="http://www.w3.org/2000/svg" id="Capa_1" data-name="Capa 1" viewBox="0 0 350.19 350.19" version="1.2" baseProfile="tiny-ps">
  <defs>
    <style>
      .cls-1 {
        fill: #005053;
      }
    </style>
  </defs>
  <g>
    <path class="cls-1" d="M321.56,212.47h0c-8.51,0-15.41-6.9-15.41-15.41,0-8.51-6.9-15.42-15.42-15.42h-61.66c-8.51,0-15.42,6.9-15.42,15.42s-6.9,15.41-15.41,15.41h0c-8.51,0-15.42,6.9-15.42,15.42v61.66c0,8.51,6.9,15.42,15.42,15.42h0c8.51,0,15.41,6.9,15.41,15.41s6.9,15.42,15.42,15.42h61.66c8.51,0,15.42-6.9,15.42-15.42,0-8.51,6.9-15.41,15.41-15.41h0c8.51,0,15.42-6.9,15.42-15.42v-61.66c0-8.51-6.9-15.42-15.42-15.42ZM306.15,289.54c0,8.51-6.9,15.42-15.42,15.42h-61.66c-8.51,0-15.42-6.9-15.42-15.42v-61.66c0-8.51,6.9-15.42,15.42-15.42h61.66c8.51,0,15.42,6.9,15.42,15.42v61.66Z"/>
    <path class="cls-1" d="M151.94,274.13h0c-8.51,0-15.41-6.9-15.41-15.41h0c0-8.52-6.9-15.42-15.41-15.42h-30.83c-8.51,0-15.41,6.9-15.41,15.41h0c0,8.52,6.9,15.42,15.41,15.42h30.83c8.51,0,15.41,6.9,15.41,15.41h0c0,8.51-6.9,15.42-15.42,15.42h-61.66c-8.51,0-15.42-6.9-15.42-15.42v-61.66c0-8.51,6.9-15.42,15.42-15.42h61.66c8.51,0,15.41-6.9,15.41-15.41h0c0-8.51-6.9-15.42-15.42-15.42h-61.61c-8.43,0-15.6,6.74-15.47,15.17.14,8.63-6.82,15.66-15.41,15.66h0c-8.51,0-15.42,6.9-15.42,15.42v61.72c0,8.48,6.87,15.35,15.35,15.35h0c8.34,0,15.6,6.82,15.48,15.17s6.82,15.66,15.41,15.66h61.61c8.43,0,15.6-6.74,15.47-15.17s6.82-15.66,15.41-15.66h0c8.51,0,15.42-6.9,15.42-15.42h0c0-8.51-6.9-15.41-15.41-15.41Z"/>
  </g>
  <g>
    <path class="cls-1" d="M167.39,45.19v76.96c0,8.5-6.89,15.39-15.39,15.39s-15.39,6.89-15.39,15.39-6.89,15.39-15.39,15.39-15.18-6.68-15.39-15v-.59c0-.07,0-.13,0-.2-.21-8.32-7.02-14.99-15.39-14.99s-15.39,6.89-15.39,15.39-6.89,15.39-15.39,15.39-15.39-6.89-15.39-15.39-6.89-15.39-15.39-15.39-15.39-6.89-15.39-15.39V29.8c0-8.5,6.89-15.39,15.39-15.39s15.39,6.89,15.39,15.39v15.39h0v76.96c0,8.5,6.89,15.39,15.39,15.39s15.39-6.89,15.39-15.39v-61.57c0-8.5,6.89-15.39,15.39-15.39h0c8.37,0,15.18,6.68,15.39,14.99v62.36h0c.21,8.32,7.02,14.99,15.39,14.99s15.39-6.89,15.39-15.39V45.19h0v-14.99c0-.07,0-.13,0-.2,0-.02,0-.04,0-.07v-.27s0-.04,0-.07c.1-8.41,6.95-15.2,15.39-15.2s15.18,6.68,15.39,15v15.79h0Z"/>
    <path class="cls-1" d="M305.92,122.15c0,8.5-6.89,15.39-15.39,15.39h-61.57c-8.5,0-15.39-6.89-15.39-15.39v-61.57c0-8.5,6.88-15.38,15.38-15.38h61.58c8.5,0,15.39,6.89,15.39,15.38v61.57ZM228.95,14.41c-8.5,0-15.39,6.89-15.39,15.39s-6.88,15.38-15.38,15.39h0c-8.5,0-15.38,6.89-15.38,15.38v61.57c0,8.5,6.89,15.39,15.38,15.39s15.39,6.89,15.39,15.39,6.89,15.39,15.39,15.39h61.57c8.5,0,15.39-6.89,15.39-15.39s6.89-15.39,15.38-15.39,15.39-6.89,15.39-15.39v-61.57c0-8.5-6.89-15.38-15.39-15.38h0c-8.5,0-15.38-6.9-15.38-15.39s-6.89-15.39-15.39-15.39h-61.57Z"/>
    <path class="cls-1" d="M305.93,289.6c0,8.5-6.89,15.39-15.39,15.39h-61.57c-8.5,0-15.39-6.89-15.39-15.39v-61.57c0-8.5,6.88-15.38,15.38-15.38h61.58c8.5,0,15.39,6.89,15.39,15.38v61.57ZM228.96,181.86c-8.5,0-15.39,6.89-15.39,15.39s-6.88,15.38-15.38,15.39h0c-8.5,0-15.38,6.89-15.38,15.38v61.57c0,8.5,6.89,15.39,15.38,15.39s15.39,6.89,15.39,15.39,6.89,15.39,15.39,15.39h61.57c8.5,0,15.39-6.89,15.39-15.39s6.89-15.39,15.38-15.39,15.39-6.89,15.39-15.39v-61.57c0-8.5-6.89-15.38-15.39-15.38h0c-8.5,0-15.38-6.9-15.38-15.39s-6.89-15.39-15.39-15.39h-61.57Z"/>
    <path class="cls-1" d="M75.04,181.86h-15.38c-8.5,0-15.39,6.89-15.39,15.39s-6.9,15.39-15.39,15.39-15.39,6.89-15.39,15.38v61.57c0,8.5,6.89,15.39,15.39,15.39s15.39,6.89,15.39,15.39,6.89,15.39,15.39,15.39h61.57c8.5,0,15.39-6.89,15.39-15.39s6.89-15.39,15.38-15.39,15.2-6.7,15.38-15.05c0-.03,0-.06,0-.09,0,0,0,0,0-.02,0,0,0,0,0,0,0,0,0,0,0-.02,0,0,0,0,0,0v-.39s0,0,0,0c0,0,0-.02,0-.02,0,0,0-.02,0-.03,0-.04,0-.07,0-.1-.18-8.34-7-15.04-15.38-15.04s-15.27-6.78-15.38-15.19h0s0,0,0,0v-.61c-.21-8.32-7.02-15-15.38-15h-30.79c-8.37,0-15.17,6.68-15.38,15,0,.05,0,.1,0,.16,0,0,0,0,0,.02,0,0,0,0,0,.02,0,0,0,0,0,0v.39s0,0,0,0c0,0,0,.02,0,.02,0,0,0,.02,0,.02,0,.05,0,.1,0,.15.21,8.32,7.02,15,15.38,15h30.79c8.37,0,15.17,6.68,15.38,14.99v.15h0s0,.02,0,.03h0v.02h0v.41h0v.02h0s0,0,0,0v.16c-.21,8.32-7.02,15-15.38,15h-61.57c-8.4,0-15.23-6.72-15.39-15.09v.09s0-.04,0-.05c0,0,0-.03,0-.05,0,0,0-.03,0-.05,0,0,0,0,0-.02h0s0-.02,0-.03h0v-.4s0,0,0,0c0,0,0-.02,0-.02,0,0,0,0,0,0v-.02s0,0,0,0c0-.02,0-.04,0-.05s0-.04,0-.05c0-.02,0-.03,0-.05v-29.99s0-.03,0-.05c0-.02,0-.03,0-.05,0,0,0-.03,0-.05t0,0h0s0,0,0-.02c0,0,0,0,0-.02h0v-.4s0,0,0,0c0,0,0-.02,0-.02,0,0,0,0,0-.02h0s0-.05,0-.06,0-.03,0-.05c0-.02,0-.03,0-.05v-30s0-.03,0-.05c0-.02,0-.03,0-.05,0,0,0-.03,0-.05t0,0h0s0,0,0-.02c0,0,0,0,0-.02h0v-.4s0,0,0,0c0,0,0-.02,0-.02,0,0,0,0,0-.02h0s0-.05,0-.06,0-.03,0-.05c0-.02,0-.03,0-.05v.09c.17-8.36,6.99-15.08,15.39-15.08h61.57c8.37,0,15.17-6.69,15.38-15v-.79c-.21-8.32-7.02-15-15.38-15h-46.17"/>
  </g>
<title>WOGO</title></svg>
